# xmcd
#
# Track frame offsets: 
#        150
#        18912
#        34680
#        54997
#        76950
#        99645
#        119327
#        136137
#        155337
#        172780
#        187575
#        201665
#
# Disc length: 2859 seconds
#
# Revision: 2
# Processed by: cddbd v1.5.2PL0 Copyright (c) Steve Scherf et al.
# Submitted via: ExactAudioCopyFreeDBPlugin 1.0
#
DISCID=8c0b290c
DTITLE=Kevin Gordon - Down To The Well
DYEAR=2000
DGENRE=Blues
TTITLE0=Down To The Well
TTITLE1=Burning The Church House Down
TTITLE2=Marina Takes Her Aim
TTITLE3=Promise Road
TTITLE4=Time For The Sun To Rise
TTITLE5=Deuce And A Quarter
TTITLE6=Jimmy Reed Is The King Of Rock and Roll
TTITLE7=Water Gasoline
TTITLE8=Great Southern
TTITLE9=Pueblo Dog
TTITLE10=Oil City Girl
TTITLE11=Shoes (Walk All Over God's Heaven)
EXTD=YEAR: 2000
EXTT0=
EXTT1=
EXTT2=
EXTT3=
EXTT4=
EXTT5=
EXTT6=
EXTT7=
EXTT8=
EXTT9=
EXTT10=
EXTT11=
PLAYORDER=
